<?xml version="1.0" encoding="UTF-8"?>
<svg version="1.1" xmlns="http://www.w3.org/2000/svg" width="583" height="583">
<path d="M0 0 C192.39 0 384.78 0 583 0 C583 192.39 583 384.78 583 583 C390.61 583 198.22 583 0 583 C0 390.61 0 198.22 0 0 Z " fill="#9F0124" transform="translate(0,0)"/>
<path d="M0 0 C192.39 0 384.78 0 583 0 C583 150.15 583 300.3 583 455 C574.30341878 450.36182335 565.83190444 445.77111438 557.4453125 440.6640625 C551.86623859 437.29679536 546.21107899 434.06129102 540.5625 430.8125 C529.01589802 424.16831476 517.50011862 417.47321877 505.99853516 410.75146484 C502.92062401 408.95363595 499.84137971 407.15811092 496.76171875 405.36328125 C464.7551007 386.70947118 464.7551007 386.70947118 452 379 C452.53484401 373.65155992 454.46690767 369.64203897 457 365 C457.66 365 458.32 365 459 365 C459.12375 364.154375 459.2475 363.30875 459.375 362.4375 C460.02770327 358.84763202 460.95247463 355.49175125 462 352 C462.66 352 463.32 352 464 352 C463.9071875 350.515 463.9071875 350.515 463.8125 349 C463.80483163 345.37466624 464.88628408 342.65353546 466.20483398 339.28369141 C467.63251033 335.18345052 468.34878327 330.9504823 469.125 326.6875 C469.29386719 325.81416016 469.46273438 324.94082031 469.63671875 324.04101562 C478.35251407 277.40807926 468.02417918 229.39309024 442 190 C441.30519531 188.91203125 440.61039062 187.8240625 439.89453125 186.703125 C433.9359944 177.77791706 426.60406733 170.20561649 419.0625 162.625 C418.30646484 161.85970474 418.30646484 161.85970474 417.53515625 161.07894897 C406.80276154 150.26227186 395.09418183 141.78616185 382 134 C381.05769531 133.40316406 380.11539062 132.80632812 379.14453125 132.19140625 C363.47339522 122.48610959 345.88685005 117.79881768 328 114 C327.15163574 113.81920898 326.30327148 113.63841797 325.42919922 113.45214844 C313.56884321 111.0577037 301.68647662 110.7006647 289.625 110.625 C288.55381927 110.61294525 288.55381927 110.61294525 287.46099854 110.60064697 C277.23742964 110.51325598 267.96744089 111.71138476 258 114 C256.37669424 114.30095323 254.75205287 114.59501178 253.125 114.875 C234.99066176 118.59105292 215.5436975 124.82093679 200.2578125 135.4375 C197.28794151 137.49277404 194.15941729 139.16771119 190.97265625 140.859375 C188.91302324 141.99240682 188.91302324 141.99240682 186.87109375 143.640625 C185 145 185 145 183 145 C183 145.66 183 146.32 183 147 C182.443125 147.226875 181.88625 147.45375 181.3125 147.6875 C178.34162851 149.37367031 176.39177042 151.55387116 174 154 C172.86073866 154.98680544 171.71411224 155.96513657 170.5625 156.9375 C157.81712273 168.0445301 146.22606843 180.12979938 138 195 C119.8289448 188.27131223 103.06086548 176.66550528 86.546875 166.71484375 C85.66636475 166.18487793 84.78585449 165.65491211 83.87866211 165.10888672 C82.23721272 164.11973817 80.59725196 163.1281124 78.95922852 162.13330078 C73.98004218 159.12545273 68.92225058 156.30569074 63.8059082 153.53833008 C59.12818287 150.97378233 54.53625663 148.26533612 49.9375 145.5625 C43.32063472 141.68491123 36.69868205 137.81740361 30.046875 134 C29.18425804 133.50450905 29.18425804 133.50450905 28.30421448 132.99900818 C25.53583608 131.40913389 22.76605619 129.82179924 19.99389648 128.23852539 C18.47131226 127.36442017 18.47131226 127.36442017 16.91796875 126.47265625 C16.03906982 125.97000244 15.1601709 125.46734863 14.25463867 124.94946289 C9.44160977 122.0665557 4.73326434 119.01207731 0 116 C0 77.72 0 39.44 0 0 Z " fill="#000000" transform="translate(0,0)"/>
<path d="M0 0 C0.9605127 0.20399414 1.92102539 0.40798828 2.91064453 0.61816406 C30.0689926 6.56866163 56.24812666 16.87369007 77 36 C78.21151634 37.04510982 79.42384958 38.08927296 80.63671875 39.1328125 C94.53791159 51.29433336 107.44633838 64.13107257 117 80 C117.87571546 81.40140841 118.75203199 82.80244137 119.62890625 84.203125 C144.79105113 125.02181898 150.49440577 174.21655606 140.79296875 220.75390625 C140.13574928 223.44429727 139.38674173 225.9286954 138.375 228.5 C136.94120983 232.14964771 136.40309325 235.13030484 136 239 C135.34 239 134.68 239 134 239 C133.87625 240.03125 133.7525 241.0625 133.625 242.125 C133.06110186 245.62116846 132.21317941 248.68397627 131 252 C130.34 252 129.68 252 129 252 C128.9175 252.66 128.835 253.32 128.75 254 C127.1172985 260.53080601 123.46308439 266.02189194 119.69140625 271.5234375 C118.48891942 273.2841226 117.31174489 275.0622119 116.15234375 276.8515625 C109.07071509 287.74854179 100.82700913 297.48261027 92 307 C91.46246094 307.59167969 90.92492187 308.18335938 90.37109375 308.79296875 C76.43908455 323.49315891 58.22903189 334.54031335 40 343 C39.01580078 343.46599609 39.01580078 343.46599609 38.01171875 343.94140625 C19.89662332 352.48086938 0.97769546 357.41834759 -19 359 C-20.32596191 359.10876465 -20.32596191 359.10876465 -21.67871094 359.21972656 C-66.92066343 362.6564547 -114.97397458 350.22403762 -150 320.3125 C-152.01456087 318.55717578 -154.00778677 316.78091789 -156 315 C-157.45781696 313.74939782 -158.91607497 312.49930936 -160.375 311.25 C-161.58863785 310.17261255 -162.79735505 309.08964475 -164 308 C-164.54527344 307.50886719 -165.09054688 307.01773437 -165.65234375 306.51171875 C-195.52461208 278.1857796 -215.8244151 233.10610716 -217.12597656 192.02368164 C-217.20471852 188.15789977 -217.23087801 184.29278706 -217.24023438 180.42626953 C-217.24986913 178.03251422 -217.28094751 175.63964618 -217.3125 173.24609375 C-217.41061167 158.96914779 -215.47102865 145.15293652 -211.6875 131.375 C-211.47585205 130.59342529 -211.2642041 129.81185059 -211.04614258 129.0065918 C-207.39799771 115.91228644 -202.20253533 103.8700752 -195.9375 91.83251953 C-194.56356515 89.14690626 -193.29388545 86.41239463 -192 83.6875 C-184.77122031 69.34591034 -173.19465665 58.15071976 -162 46.875 C-161.46028564 46.33053223 -160.92057129 45.78606445 -160.36450195 45.22509766 C-153.10858634 38 -153.10858634 38 -150 38 C-149.67 37.01 -149.34 36.02 -149 35 C-146.9375 34.3125 -146.9375 34.3125 -145 34 C-145 33.34 -145 32.68 -145 32 C-137.89782046 26.49674046 -129.96035019 22.1223242 -122 18 C-121.236875 17.59265625 -120.47375 17.1853125 -119.6875 16.765625 C-100.65558085 6.86388328 -81.14964557 0.94635637 -59.90673828 -1.69042969 C-40.57329771 -4.82932887 -19.27484179 -4.10757312 0 0 Z " fill="#FCF9FA" transform="translate(328,113)"/>
<path d="M0 0 C0.71027344 0.17692383 1.42054688 0.35384766 2.15234375 0.53613281 C7.16871422 1.83046369 12.09093763 3.34769852 17 5 C17.67659668 5.22558594 18.35319336 5.45117188 19.05029297 5.68359375 C42.93652983 13.78101089 62.74446819 27.80097945 81 45 C81.76183594 45.69609375 82.52367187 46.3921875 83.30859375 47.109375 C100.3567571 63.25038838 113.42292237 84.86821946 121 107 C121.22236328 107.64243652 121.44472656 108.28487305 121.67382812 108.94677734 C126.64943173 123.4802178 130.06524536 138.46068754 130.23828125 153.8828125 C130.25310799 154.97500595 130.25310799 154.97500595 130.26823425 156.08926392 C130.52483972 179.91383862 127.78033319 200.47201888 120 223.1328125 C119.71125 223.97730957 119.4225 224.82180664 119.125 225.69189453 C117.82156771 228.36608049 116.19398558 230.01570002 114 232 C113.40574219 231.20078125 112.81148438 230.4015625 112.19921875 229.578125 C106.21830093 221.61904458 99.87901247 214.192468 93 207 C92.11441406 206.0615625 91.22882813 205.123125 90.31640625 204.15625 C57.85563676 170.61188443 10.84999369 153.44111336 -35.24926758 152.64453125 C-54.05628754 152.54975572 -72.02238943 154.3282029 -90 160 C-90.74008301 160.2263916 -91.48016602 160.4527832 -92.24267578 160.68603516 C-110.42929804 166.3239997 -127.63619059 174.69739336 -143 186 C-144.05574219 186.76054687 -145.11148438 187.52109375 -146.19921875 188.3046875 C-162.20257477 200.1519274 -175.66697706 214.68933561 -187 231 C-198.99700042 220.62627237 -201.43858647 192.47552275 -202.72265625 177.390625 C-205.03736323 144.17125198 -197.88553406 113.8198442 -183.04980469 84.2097168 C-181.93499294 81.94592018 -181.93499294 81.94592018 -180.98925781 79.28442383 C-180 77 -180 77 -178 76 C-177.484375 74.88625 -176.96875 73.7725 -176.4375 72.625 C-171.75066054 62.90414779 -163.29581109 54.83208438 -156 47 C-155.27683594 46.21109375 -154.55367187 45.4221875 -153.80859375 44.609375 C-142.05203325 32.27592743 -128.11782582 22.72311678 -113 15 C-112.34628418 14.65630371 -111.69256836 14.31260742 -111.01904297 13.95849609 C-98.87893138 7.6161137 -86.23108888 3.45977051 -73 0 C-71.91041992 -0.29245605 -71.91041992 -0.29245605 -70.79882812 -0.59082031 C-49.36363535 -6.05940852 -21.42578121 -5.3564453 0 0 Z " fill="#020101" transform="translate(328,128)"/>
<path d="M0 0 C10.4175343 8.60578921 15.59299847 24.29582736 16.875 37.375 C17.12184844 41.60505213 17.21360249 45.82576804 17.25 50.0625 C17.26393799 51.10752686 17.27787598 52.15255371 17.29223633 53.22924805 C17.2140402 66.10317493 13.77571669 77.32211236 5.2421875 87.02734375 C3.875 88.375 3.875 88.375 1.875 89.375 C1.38 90.86 1.38 90.86 0.875 92.375 C1.57407471 92.47176025 2.27314941 92.56852051 2.9934082 92.66821289 C6.41087633 93.50643794 8.93847075 94.91560887 11.98046875 96.68359375 C12.54574783 97.01037613 13.11102692 97.33715851 13.69343567 97.67384338 C14.88114291 98.36231264 16.06688303 99.05418555 17.25073242 99.74926758 C19.06303498 100.81281395 20.88145868 101.86520915 22.70117188 102.91601562 C31.57196255 108.07196255 31.57196255 108.07196255 33.875 110.375 C32.84282349 110.47204224 32.84282349 110.47204224 31.78979492 110.57104492 C17.05862708 111.99893497 3.00353588 113.91935392 -11.125 118.375 C-11.92035156 118.61702148 -12.71570313 118.85904297 -13.53515625 119.10839844 C-31.6592807 124.68781393 -48.8284212 133.12185252 -64.125 144.375 C-65.18074219 145.13554687 -66.23648438 145.89609375 -67.32421875 146.6796875 C-83.32757477 158.5269274 -96.79197706 173.06433561 -108.125 189.375 C-120.12200042 179.00127237 -122.56358647 150.85052275 -123.84765625 135.765625 C-126.16236323 102.54625198 -119.01053406 72.1948442 -104.17480469 42.5847168 C-103.05407556 40.34068362 -103.05407556 40.34068362 -102.23925781 37.72192383 C-101.125 35.375 -101.125 35.375 -99.31079102 33.9074707 C-97.125 33.375 -97.125 33.375 -94.76928711 34.25854492 C-93.9056958 34.78552979 -93.04210449 35.31251465 -92.15234375 35.85546875 C-91.17845703 36.43796387 -90.20457031 37.02045898 -89.20117188 37.62060547 C-88.16541016 38.26143066 -87.12964844 38.90225586 -86.0625 39.5625 C-83.90522041 40.86112986 -81.74766438 42.1593006 -79.58984375 43.45703125 C-78.50944824 44.11396973 -77.42905273 44.7709082 -76.31591797 45.44775391 C-71.62371109 48.28174634 -66.87714624 51.01814754 -62.125 53.75 C-60.56228652 54.6532766 -58.99976397 55.55688366 -57.4375 56.4609375 C-56.344375 57.09257812 -55.25125 57.72421875 -54.125 58.375 C-52.90392079 57.38149414 -52.90392079 57.38149414 -53.05908203 55.43237305 C-53.08341309 54.59230713 -53.10774414 53.75224121 -53.1328125 52.88671875 C-53.60212045 30.14894577 -53.60212045 30.14894577 -50.125 23.375 C-48.14179982 22.34208324 -46.14152194 21.3412501 -44.125 20.375 C-43.20552972 17.99510089 -43.20552972 17.99510089 -42.625 15.1875 C-41.08952519 8.50730213 -38.584102 3.78315955 -32.875 -0.19140625 C-21.70393615 -6.64049081 -11.20474088 -5.82646526 0 0 Z " fill="#9E0124" transform="translate(249.125,169.625)"/>
<path d="M0 0 C10.4175343 8.60578921 15.59299847 24.29582736 16.875 37.375 C17.12184844 41.60505213 17.21360249 45.82576804 17.25 50.0625 C17.26393799 51.10752686 17.27787598 52.15255371 17.29223633 53.22924805 C17.20851077 67.01351963 13.24274188 78.31239814 3.875 88.375 C3.00875 89.4578125 3.00875 89.4578125 2.125 90.5625 C-5.77962282 96.93011283 -16.34291523 98.22036535 -26.125 97.375 C-33.29994662 95.66863734 -39.45851534 92.1139066 -44.125 86.375 C-51.16093899 74.57904706 -53.47088632 64.34250615 -53.4375 50.6875 C-53.45361328 49.38876953 -53.46972656 48.09003906 -53.48632812 46.75195312 C-53.49031837 38.8073848 -53.23862144 30.8062089 -50.125 23.375 C-48.14179982 22.34208324 -46.14152194 21.3412501 -44.125 20.375 C-43.20552972 17.99510089 -43.20552972 17.99510089 -42.625 15.1875 C-41.08952519 8.50730213 -38.584102 3.78315955 -32.875 -0.19140625 C-21.70393615 -6.64049081 -11.20474088 -5.82646526 0 0 Z " fill="#FEFCFC" transform="translate(249.125,169.625)"/>
<path d="M0 0 C2.85094107 4.11802599 3.27271705 6.94164762 2.4375 11.75 C1.67854759 14.43376545 1.09461354 15.88436123 -0.6875 18.0625 C-3.8965803 19.3634785 -6.57410164 19.25377025 -10 19 C-10.66 18.67 -11.32 18.34 -12 18 C-11.91298828 17.12988281 -11.91298828 17.12988281 -11.82421875 16.2421875 C-11.57749537 11.97034837 -11.50420351 8.94274178 -14.25 5.5 C-17.2370096 2.65425806 -17.2370096 2.65425806 -21 2 C-22.27875 1.896875 -23.5575 1.79375 -24.875 1.6875 C-29.21685083 1.74409768 -31.65096125 3.1961536 -35 6 C-37.97835973 9.08106179 -38.83218216 11.72064511 -39 16 C-37.53431386 22.20097981 -34.44965654 24.68632821 -29.21875 28.1171875 C-25.33895704 30.38667804 -21.36998047 32.44250491 -17.375 34.5 C-8.13925654 39.27703943 -0.71341556 43.82482177 3 54 C5.61364466 63.00647821 3.59746832 71.55609068 0 80 C-4.77145559 87.88492528 -12.3506255 91.77884484 -21 94.3125 C-31.69798743 96.5332399 -43.74805169 95.02435001 -53.0625 89.1875 C-57.62044024 85.82549637 -60.19321765 82.42034705 -62 77 C-62.5833207 70.58347233 -62.16067785 65.6440676 -59 60 C-56.65262546 57.1982949 -54.48497934 55.16165978 -51 54 C-46.67045003 53.65638492 -44.02465102 53.59440897 -40 55.1875 C-38 57 -38 57 -37.375 59.3125 C-38.1125531 62.48397831 -39.66745611 64.01939568 -41.80859375 66.3984375 C-43.87363532 69.17439502 -44 71.61406895 -44 75 C-42.78102529 78.52148248 -41.68043555 80.43621054 -38.8125 82.8125 C-33.61377645 85.00751661 -29.7370809 85.47919473 -24.375 84 C-19.63834442 81.19309299 -16.00547291 78.17931658 -14.30078125 72.7890625 C-13.45517033 67.46080443 -14.26514044 63.74042324 -17 59 C-21.71552374 53.31363314 -28.07849545 49.4243437 -34.63671875 46.15625 C-42.52671921 42.21520664 -48.95388082 38.56917877 -54 31 C-56.38276327 23.85171018 -56.11352947 15.34147988 -52.9375 8.5 C-47.932898 -0.00364129 -41.33381677 -3.37401365 -32 -6 C-21.53717543 -8.401304 -8.6744718 -6.58003193 0 0 Z " fill="#FEFDFE" transform="translate(370,168)"/>
<path d="M0 0 C6.85400136 3.35706189 10.71033368 8.67457941 13.41796875 15.65625 C17.3393079 27.2665171 19.15089925 38.43417182 19.25 50.6875 C19.25942627 51.56688232 19.26885254 52.44626465 19.27856445 53.35229492 C19.2362823 61.83824362 18.39626456 69.17531247 13 76 C12.1646875 77.1446875 12.1646875 77.1446875 11.3125 78.3125 C7.76980647 80.89770879 4.32414553 81.17559982 0 81 C-5.79645106 79.3576722 -8.50038743 76.8237903 -12 72 C-12.70125 71.154375 -13.4025 70.30875 -14.125 69.4375 C-17.712926 62.85963567 -19.7062768 54.51221689 -19 47 C-14.15789474 43 -14.15789474 43 -11 43 C-10.1194366 39.01218192 -10.1194366 39.01218192 -10 35 C-12.26513223 32.73787565 -12.26513223 32.73787565 -15 31 C-17.09461194 27.02451204 -17.29800221 23.51332038 -17.3125 19.0625 C-17.32925781 17.87785156 -17.34601563 16.69320312 -17.36328125 15.47265625 C-16.80535207 10.13933318 -14.76636834 6.17216643 -10.75 2.625 C-7.13341114 -0.26827109 -4.66162476 -0.84756814 0 0 Z " fill="#030202" transform="translate(232,174)"/>
<path d="M0 0 C4.0794293 0.58553977 6.899858 1.9017567 10.41015625 4.03515625 C11.4686377 4.67179199 12.52711914 5.30842773 13.61767578 5.96435547 C14.17811584 6.30577576 14.73855591 6.64719604 15.315979 6.9989624 C18.32498953 8.8312884 21.34873853 10.63901963 24.37109375 12.44921875 C24.99725586 12.82500061 25.62341797 13.20078247 26.26855469 13.58795166 C32.99729893 17.61672924 39.80589795 21.50181792 46.625 25.375 C54.63288927 29.92945564 62.62311163 34.50630497 70.54882812 39.20239258 C77.04284958 43.04362226 83.58494991 46.80032762 90.125 50.5625 C109.31590142 61.61264255 109.31590142 61.61264255 118 67 C119.11117187 67.56847656 120.22234375 68.13695312 121.3671875 68.72265625 C124 71 124 71 124.5859375 74.890625 C124.5462752 76.34490937 124.47500701 77.79861628 124.375 79.25 C124.33439453 80.36761719 124.33439453 80.36761719 124.29296875 81.5078125 C124.22250808 83.33978993 124.11488993 85.17027151 124 87 C120.26949955 85.6022782 116.90496128 83.90194867 113.45703125 81.91015625 C112.39170166 81.2958374 111.32637207 80.68151855 110.22875977 80.04858398 C109.10139404 79.39317627 107.97402832 78.73776855 106.8125 78.0625 C105.64057031 77.38414986 104.46861371 76.70584619 103.29663086 76.02758789 C95.81357559 71.6867839 88.38364448 67.26458573 81.0480957 62.67797852 C76.42207986 59.80068815 71.69146323 57.17280267 66.89916992 54.58276367 C61.92645911 51.86797764 57.02826321 49.02524689 52.125 46.1875 C51.01729248 45.54731934 49.90958496 44.90713867 48.76831055 44.24755859 C30.43086724 33.64018393 12.1159215 22.98219075 -6 12 C-4.57271181 7.40953257 -2.80273303 3.92382624 0 0 Z " fill="#FCFAFB" transform="translate(459,384)"/>
<path d="M0 0 C16.64112893 9.04525879 33.08275625 18.40130505 49.35586548 28.09338379 C57.59812399 33.00178175 65.88111201 37.82544548 74.22143555 42.56494141 C92.27125722 52.82914285 110.13786024 63.4136484 128 74 C126.88625436 78.84859547 124.45778845 82.71462527 122 87 C113.45913988 82.88922563 105.30073318 78.3321129 97.1875 73.4375 C94.80412204 72.00959373 92.418185 70.58601357 90.03125 69.1640625 C89.43692673 68.80985733 88.84260345 68.45565216 88.23027039 68.0907135 C82.59844082 64.74369205 76.90291633 61.51451332 71.1875 58.3125 C62.77294497 53.5950624 54.44520064 48.75013256 46.15405273 43.81933594 C38.89153211 39.5069893 31.57487469 35.2960356 24.22607422 31.13256836 C19.28295135 28.32715983 14.38823084 25.45498544 9.52832031 22.50756836 C6.37742288 20.62877426 3.18516531 18.82009446 0 17 C0 11.39 0 5.78 0 0 Z " fill="#FBFAFB" transform="translate(0,116)"/>
<path d="M0 0 C1.73974609 0.13012695 1.73974609 0.13012695 4.0234375 0.48828125 C4.87139893 0.61678467 5.71936035 0.74528809 6.59301758 0.87768555 C7.97009888 1.0929187 7.97009888 1.0929187 9.375 1.3125 C19.55933416 2.84380027 29.750928 4.00437586 40 5 C40.02465622 9.25414623 40.04283899 13.50825498 40.05493164 17.76245117 C40.05997101 19.21070073 40.06680253 20.65894517 40.07543945 22.10717773 C40.08752247 24.18474588 40.09323211 26.26224697 40.09765625 28.33984375 C40.10289307 29.59144287 40.10812988 30.84304199 40.11352539 32.13256836 C40 35 40 35 39 36 C29.62516893 36.05881324 20.43841986 34.9237105 11.25 33.125 C10.40526123 32.96362549 9.56052246 32.80225098 8.69018555 32.63598633 C0.24868789 30.88410569 0.24868789 30.88410569 -3 28 C-4.78513497 19.54869668 -2.65850531 9.37726771 -1 1 C-0.67 0.67 -0.34 0.34 0 0 Z " fill="#9F0225" transform="translate(247,422)"/>
<path d="M0 0 C1.18160772 7.03689596 2.17227666 14.05058106 2.4375 21.1875 C2.49744141 22.75564453 2.49744141 22.75564453 2.55859375 24.35546875 C2 27 2 27 0.05078125 28.73046875 C-3.98124303 30.40832777 -7.96924515 31.3072268 -12.25 32.125 C-13.12374268 32.29604248 -13.99748535 32.46708496 -14.89770508 32.64331055 C-23.20006908 34.18456684 -31.55027091 35.05300959 -40 35 C-41 34 -41 34 -41.11352539 31.13256836 C-41.10828857 29.88096924 -41.10305176 28.62937012 -41.09765625 27.33984375 C-41.0962413 26.67537735 -41.09482635 26.01091095 -41.09336853 25.3263092 C-41.08775518 23.19666101 -41.07520054 21.06711661 -41.0625 18.9375 C-41.05748671 17.49674631 -41.05292351 16.05599097 -41.04882812 14.61523438 C-41.03778145 11.07678898 -41.02050792 7.53840461 -41 4 C-40.0212793 3.88406494 -39.04255859 3.76812988 -38.03417969 3.64868164 C-34.39600973 3.21703004 -30.75825093 2.78199496 -27.12060547 2.34594727 C-25.54747312 2.15785183 -23.97423141 1.97066874 -22.40087891 1.78442383 C-20.13674884 1.5162467 -17.87303501 1.24476907 -15.609375 0.97265625 C-14.90818542 0.89032242 -14.20699585 0.80798859 -13.48455811 0.72315979 C-10.83673689 0.40236777 -8.25383641 0.06393684 -5.66503906 -0.58813477 C-3.52209381 -1.11821521 -2.07327305 -0.6664092 0 0 Z " fill="#9F0225" transform="translate(337,423)"/>
<path d="M0 0 C2.08323645 5.58686138 3.15993715 11.2831843 4.25 17.125 C4.54777344 18.60806641 4.54777344 18.60806641 4.8515625 20.12109375 C5.02945313 21.07371094 5.20734375 22.02632813 5.390625 23.0078125 C5.55594727 23.87035645 5.72126953 24.73290039 5.89160156 25.62158203 C6.01883814 28.41333589 5.60293241 29.7241025 4 32 C0.875 33.01171875 0.875 33.01171875 -3 33.6875 C-3.6791748 33.80778564 -4.35834961 33.92807129 -5.05810547 34.05200195 C-14.88215057 35.74214773 -23.90846783 36 -34 36 C-34 25.44 -34 14.88 -34 4 C-22.25 2.5625 -22.25 2.5625 -18.56347656 2.11547852 C-17.11666504 1.93650024 -17.11666504 1.93650024 -15.640625 1.75390625 C-14.65610352 1.63345947 -13.67158203 1.5130127 -12.65722656 1.38891602 C-10.06834205 1.05615904 -10.06834205 1.05615904 -7.85058594 0.45678711 C-5.22559828 -0.1911485 -2.69020139 -0.06114094 0 0 Z " fill="#9F0225" transform="translate(330,383)"/>
<path d="M0 0 C7.56106076 0.71037129 15.09151248 1.60605737 22.625 2.5625 C26.37875 3.036875 30.1325 3.51125 34 4 C34 14.56 34 25.12 34 36 C24.13246265 36 15.59091029 35.53496909 6 34 C4.46472656 33.76603516 4.46472656 33.76603516 2.8984375 33.52734375 C-2.13112543 32.6649259 -2.13112543 32.6649259 -4 32 C-6.35067924 28.47398114 -6.11738233 27.88565494 -5.390625 23.88671875 C-5.21273437 22.88576172 -5.03484375 21.88480469 -4.8515625 20.85351562 C-4.65304688 19.80873047 -4.45453125 18.76394531 -4.25 17.6875 C-4.06695312 16.65431641 -3.88390625 15.62113281 -3.6953125 14.55664062 C-2.78541914 9.56183871 -1.80426955 4.76491186 0 0 Z " fill="#9F0225" transform="translate(253,383)"/>
<path d="M0 0 C0.55042969 0.268125 1.10085937 0.53625 1.66796875 0.8125 C9.2915462 4.40562797 17.10524907 7.38170999 25.00073242 10.3203125 C25.88994385 10.65289062 26.77915527 10.98546875 27.6953125 11.328125 C28.49984863 11.6262207 29.30438477 11.92431641 30.13330078 12.23144531 C32 13 32 13 33 14 C32.96066966 18.13396119 32.56767762 22.25426743 32.25 26.375 C32.17523438 27.53773438 32.10046875 28.70046875 32.0234375 29.8984375 C31.93835938 31.0121875 31.85328125 32.1259375 31.765625 33.2734375 C31.69118164 34.29872559 31.61673828 35.32401367 31.54003906 36.38037109 C30.94910475 39.24688337 30.26542185 40.21828457 28 42 C18.78503557 38.08577321 9.72523276 34.05213086 1 29.125 C-0.01320312 28.5537439 -0.01320312 28.5537439 -1.046875 27.97094727 C-3.63599553 26.48079874 -5.87832102 25.12167898 -8 23 C-7.52694273 18.5101056 -5.8982165 14.11561 -4.5625 9.8125 C-4.34529297 9.08869141 -4.12808594 8.36488281 -3.90429688 7.61914062 C-2.23712306 2.23712306 -2.23712306 2.23712306 0 0 Z " fill="#9F0225" transform="translate(206,406)"/>
<path d="M0 0 C1.20502099 3.24377174 2.38588782 6.49582689 3.5625 9.75 C4.07586914 11.13058594 4.07586914 11.13058594 4.59960938 12.5390625 C4.91865234 13.42851562 5.23769531 14.31796875 5.56640625 15.234375 C6.01415405 16.45979004 6.01415405 16.45979004 6.47094727 17.70996094 C7.06089797 20.2636008 6.97429007 21.58166707 6 24 C-3.60610263 31.70798957 -17.97821405 39.32307048 -30 42 C-31.83759071 38.8218182 -32.34930797 36.22318322 -32.6328125 32.578125 C-32.71660156 31.55332031 -32.80039062 30.52851563 -32.88671875 29.47265625 C-32.96535156 28.40917969 -33.04398437 27.34570312 -33.125 26.25 C-33.21136719 25.17105469 -33.29773438 24.09210938 -33.38671875 22.98046875 C-33.5985505 20.32080344 -33.80269402 17.66077581 -34 15 C-28.31732993 11.24365877 -21.92031878 8.92552488 -15.66015625 6.31640625 C-11.97962995 4.76588666 -8.46056927 3.27634156 -5.03125 1.21875 C-3 0 -3 0 0 0 Z " fill="#9F0225" transform="translate(378,406)"/>
<path d="M0 0 C5.00075873 4.26221251 7.2631979 9.10432647 9.875 15.0625 C10.29007812 15.96033203 10.70515625 16.85816406 11.1328125 17.78320312 C11.71289062 19.08354492 11.71289062 19.08354492 12.3046875 20.41015625 C12.65515137 21.19527588 13.00561523 21.98039551 13.36669922 22.78930664 C14.09306666 25.32487223 13.95831606 26.56497765 13 29 C6.80935615 34.66649323 -3.69509778 39.58131229 -12 41 C-14.75390625 40.56640625 -14.75390625 40.56640625 -17 40 C-17.19335938 39.03320312 -17.38671875 38.06640625 -17.5859375 37.0703125 C-17.71129883 36.44431152 -17.83666016 35.81831055 -17.96582031 35.17333984 C-18.23985751 33.80151879 -18.51263283 32.42944509 -18.78417969 31.05712891 C-19.38763341 28.01477611 -20.00433815 24.98055312 -20.6796875 21.953125 C-20.86789062 21.10234375 -21.05609375 20.2515625 -21.25 19.375 C-21.42015625 18.64023437 -21.5903125 17.90546875 -21.765625 17.1484375 C-22.05729665 14.47478074 -21.85438699 12.5546596 -21 10 C-19.35546875 8.84765625 -19.35546875 8.84765625 -17.1875 8.0625 C-13.15300886 6.48123976 -9.30599978 4.70716754 -5.4375 2.75 C-4.40496094 2.22921875 -3.37242187 1.7084375 -2.30859375 1.171875 C-1.54675781 0.78515625 -0.78492188 0.3984375 0 0 Z " fill="#9F0225" transform="translate(360,370)"/>
<path d="M0 0 C2.54254747 1.10217319 5.0840426 2.20667178 7.625 3.3125 C8.69427734 3.7755957 8.69427734 3.7755957 9.78515625 4.24804688 C11.19636279 4.8630222 12.60432001 5.48551219 14.00878906 6.11572266 C15.81176257 6.91640559 17.63544381 7.67005203 19.4609375 8.41796875 C22 10 22 10 22.72094727 12.2265625 C23.03918005 15.38940101 22.65760622 17.84797042 22.00390625 20.95703125 C21.77509766 22.06884766 21.54628906 23.18066406 21.31054688 24.32617188 C20.94026367 26.0519043 20.94026367 26.0519043 20.5625 27.8125 C20.31951172 28.98232422 20.07652344 30.15214844 19.82617188 31.35742188 C19.22608168 34.24020809 18.61708221 37.12081178 18 40 C14.5108621 40.89542575 12.40719501 41.14167392 9.07421875 39.7421875 C8.0078418 39.30193237 8.0078418 39.30193237 6.91992188 38.8527832 C6.18322266 38.53011475 5.44652344 38.20744629 4.6875 37.875 C3.93146484 37.55168701 3.17542969 37.22837402 2.39648438 36.89526367 C-11.00827945 31.05167875 -11.00827945 31.05167875 -12.8515625 27.23828125 C-13.0708735 23.93130215 -11.82183707 21.83281962 -10.375 18.875 C-9.82070312 17.73160156 -9.26640625 16.58820313 -8.6953125 15.41015625 C-8.13585937 14.28480469 -7.57640625 13.15945313 -7 12 C-6.52304688 11.00871094 -6.04609375 10.01742188 -5.5546875 8.99609375 C-2.29851275 2.29851275 -2.29851275 2.29851275 0 0 Z " fill="#9F0225" transform="translate(222,370)"/>
<path d="M0 0 C6.52576241 4.7681072 12.77352578 9.8494239 19 15 C18.44254535 19.89073546 16.95197646 23.52061057 14.6875 27.875 C14.37353271 28.4848877 14.05956543 29.09477539 13.73608398 29.72314453 C12.82911404 31.48470977 11.91472523 33.24244934 11 35 C10.18372752 36.62310828 9.37034719 38.24768191 8.5625 39.875 C8.046875 40.90625 7.53125 41.9375 7 43 C0.59424701 40.81464384 -3.95755651 36.37442747 -9 32 C-9.76054687 31.34902344 -10.52109375 30.69804687 -11.3046875 30.02734375 C-11.94664062 29.44082031 -12.58859375 28.85429687 -13.25 28.25 C-13.81203125 27.73953125 -14.3740625 27.2290625 -14.953125 26.703125 C-16 25 -16 25 -15.8671875 22.59375 C-14.90295391 19.70973602 -13.66466585 17.70577467 -11.875 15.25 C-11.25109375 14.39019531 -10.6271875 13.53039062 -9.984375 12.64453125 C-1.98816568 1.98816568 -1.98816568 1.98816568 0 0 Z " fill="#9F0124" transform="translate(195,350)"/>
<path d="M0 0 C5.076701 3.47253898 8.0314304 7.95644682 11.375 13 C11.93316406 13.80695313 12.49132812 14.61390625 13.06640625 15.4453125 C13.58847656 16.22648437 14.11054688 17.00765625 14.6484375 17.8125 C15.12458496 18.52019531 15.60073242 19.22789062 16.09130859 19.95703125 C17 22 17 22 16.75195312 24.13183594 C13.64687892 31.84613067 3.00988468 39.06986793 -4 43 C-7 42 -7 42 -8.02734375 40.3293457 C-8.47787109 39.2633313 -8.47787109 39.2633313 -8.9375 38.17578125 C-9.27523438 37.39396484 -9.61296875 36.61214844 -9.9609375 35.80664062 C-10.30382812 34.98357422 -10.64671875 34.16050781 -11 33.3125 C-11.68626699 31.70390049 -12.37374404 30.09581663 -13.0625 28.48828125 C-13.38734375 27.71693848 -13.7121875 26.9455957 -14.046875 26.15087891 C-14.87618028 24.27941898 -15.83436973 22.46612633 -16.8125 20.66796875 C-18 18 -18 18 -18.01171875 15.90234375 C-16.49647747 13.05322212 -14.34650994 11.53567643 -11.8125 9.5625 C-10.8225 8.78132813 -9.8325 8.00015625 -8.8125 7.1953125 C-7.884375 6.47085937 -6.95625 5.74640625 -6 5 C-4.76566891 3.98541725 -3.53512906 2.96615426 -2.3125 1.9375 C-1.549375 1.298125 -0.78625 0.65875 0 0 Z " fill="#9F0124" transform="translate(387,350)"/>
<path d="M0 0 C3.71273928 8.30801494 7.45144424 16.9847645 9 26 C7 29 7 29 3.54296875 29.94921875 C2.09349073 30.20876716 0.64145083 30.45430718 -0.8125 30.6875 C-1.85180664 30.88182617 -1.85180664 30.88182617 -2.91210938 31.08007812 C-9.80413342 32.25252866 -15.75258095 32 -23 32 C-23 22.43 -23 12.86 -23 3 C-7.60720131 -0.07855974 -7.60720131 -0.07855974 0 0 Z " fill="#9F0225" transform="translate(319,347)"/>
<path d="M0 0 C1.95884718 0.11667115 3.91706769 0.24386828 5.875 0.375 C6.96554687 0.44460938 8.05609375 0.51421875 9.1796875 0.5859375 C13.85903805 1.09310637 18.40139154 2.01350749 23 3 C23.02465881 6.96930989 23.04284023 10.93859034 23.05493164 14.90795898 C23.05997057 16.25920386 23.06680177 17.61044326 23.07543945 18.96166992 C23.08752419 20.90020434 23.09269828 22.838778 23.09765625 24.77734375 C23.10289307 25.94515381 23.10812988 27.11296387 23.11352539 28.31616211 C23 31 23 31 22 32 C14.87992647 32.68059526 7.89017279 31.85768799 0.875 30.6875 C-0.24455078 30.51105957 -0.24455078 30.51105957 -1.38671875 30.33105469 C-3.5078125 29.94921875 -3.5078125 29.94921875 -7 29 C-7.66 28.01 -8.32 27.02 -9 26 C-8.42166496 23.17987141 -7.746399 20.60358461 -6.875 17.875 C-6.64143799 17.11324463 -6.40787598 16.35148926 -6.16723633 15.56665039 C-4.47828179 10.1816362 -2.48957565 5.07135781 0 0 Z " fill="#9F0225" transform="translate(264,347)"/>
<path d="M0 0 C0.93013916 0.08217773 1.86027832 0.16435547 2.81860352 0.24902344 C6.99322934 0.67894122 10.16529265 1.12450746 13.875 3.1875 C12.38870685 7.34912081 9.67323237 9.24976962 5.875 11.1875 C-7.42259155 16.80387407 -20.24274082 20.19223704 -34.25 14.9375 C-38.55685483 13.05291828 -42.40254687 11.05092549 -46.125 8.1875 C-46.90875 7.61 -47.6925 7.0325 -48.5 6.4375 C-49.03625 6.025 -49.5725 5.6125 -50.125 5.1875 C-49.795 4.1975 -49.465 3.2075 -49.125 2.1875 C-32.80304809 -0.43113091 -16.48838385 -1.4634417 0 0 Z " fill="#9E0325" transform="translate(310.125,286.8125)"/>
<path d="M0 0 C5.61528251 4.10285685 11.02232498 8.42651989 16.38671875 12.8515625 C18.90705473 14.92358759 21.44779007 16.96742921 24 19 C22.7205886 26.60913098 20.57243067 33.73225897 18 41 C13.72838316 41 11.92419111 38.49501409 9 35.6875 C8.43200684 35.14859131 7.86401367 34.60968262 7.27880859 34.05444336 C6.10017955 32.93204098 4.92492359 31.80608674 3.75292969 30.67675781 C2.07569223 29.0724031 0.37406199 27.49897147 -1.3359375 25.9296875 C-2.34997962 24.975042 -3.36304787 24.01936066 -4.375 23.0625 C-5.29023438 22.20785156 -6.20546875 21.35320312 -7.1484375 20.47265625 C-9 18 -9 18 -9.0078125 15.57421875 C-7.77575639 12.42722273 -6.24113805 9.64713954 -4.5 6.75 C-3.8709375 5.69296875 -3.241875 4.6359375 -2.59375 3.546875 C-1 1 -1 1 0 0 Z " fill="#9F0224" transform="translate(174,382)"/>
<path d="M0 0 C3.13355571 2.89461355 5.24842462 5.7713477 7.3125 9.5 C7.84488281 10.4384375 8.37726563 11.376875 8.92578125 12.34375 C10.14598871 15.36099026 10.13640433 16.04079347 9 19 C7.34521484 21.02709961 7.34521484 21.02709961 5.2109375 23.15234375 C4.43363281 23.92900391 3.65632813 24.70566406 2.85546875 25.50585938 C2.03691406 26.30830078 1.21835937 27.11074219 0.375 27.9375 C-0.42035156 28.73607422 -1.21570313 29.53464844 -2.03515625 30.35742188 C-6.4430551 34.72551212 -10.82778972 38.56803741 -16 42 C-23.52433076 25.82268887 -23.52433076 25.82268887 -22.72192383 19.97265625 C-21.46868048 16.54816985 -18.28134059 14.78732527 -15.4375 12.6875 C-14.16145163 11.7178658 -12.8867064 10.74651423 -11.61328125 9.7734375 C-10.99404785 9.30260742 -10.37481445 8.83177734 -9.73681641 8.34667969 C-6.35367473 5.72348466 -3.16493121 2.87989082 0 0 Z " fill="#9F0124" transform="translate(408,382)"/>
<path d="M0 0 C3.59512251 0.57958518 5.27509885 1.8999 7.8203125 4.45703125 C8.52027344 5.15763672 9.22023438 5.85824219 9.94140625 6.58007812 C10.66199219 7.31677734 11.38257813 8.05347656 12.125 8.8125 C13.21748047 9.90014648 13.21748047 9.90014648 14.33203125 11.00976562 C20.20640277 16.94385811 20.20640277 16.94385811 22 21 C20.88266271 22.50571657 19.75589965 24.00444292 18.625 25.5 C17.99851562 26.3353125 17.37203125 27.170625 16.7265625 28.03125 C16.15679687 28.6809375 15.58703125 29.330625 15 30 C14.34 30 13.68 30 13 30 C12.7525 30.5775 12.505 31.155 12.25 31.75 C10.83316683 34.3002997 9.12372463 36.01785701 7 38 C3.068692 34.287098 -0.04797266 30.37425348 -3.125 25.9375 C-3.98140315 24.7171898 -4.83816469 23.49713102 -5.6953125 22.27734375 C-6.09137695 21.71128418 -6.48744141 21.14522461 -6.89550781 20.56201172 C-8.22664455 18.6794713 -9.60136501 16.83285174 -11 15 C-9.3718356 11.24269753 -6.98598083 8.383177 -4.375 5.25 C-3.55773437 4.26515625 -2.74046875 3.2803125 -1.8984375 2.265625 C-1.27195312 1.51796875 -0.64546875 0.7703125 0 0 Z " fill="#050404" transform="translate(404,329)"/>
<path d="M0 0 C3.04693037 1.3180715 4.64326574 3.55069792 6.73925781 6.08349609 C7.55007812 7.03740234 8.36089844 7.99130859 9.19628906 8.97412109 C10.92675781 11.83349609 10.92675781 11.83349609 11.02050781 14.22802734 C9.43355215 18.00838243 7.10718758 21.0363149 4.61425781 24.27099609 C3.63779178 25.56044859 2.66251407 26.85080189 1.68847656 28.14208984 C1.22103027 28.75938965 0.75358398 29.37668945 0.27197266 30.01269531 C-1.60917731 32.5589052 -3.34686135 35.1803645 -5.07324219 37.83349609 C-8.92049636 34.15260967 -12.18709944 30.2716369 -15.38574219 26.02099609 C-15.84013672 25.42351562 -16.29453125 24.82603516 -16.76269531 24.21044922 C-17.86958135 22.75402022 -18.97189483 21.29411793 -20.07324219 19.83349609 C-17.44648511 14.73857859 -13.62986436 10.98708336 -9.63574219 6.95849609 C-8.63317383 5.90662109 -8.63317383 5.90662109 -7.61035156 4.83349609 C-6.96001953 4.17607422 -6.3096875 3.51865234 -5.63964844 2.84130859 C-5.05127197 2.23947754 -4.46289551 1.63764648 -3.85668945 1.01757812 C-2.07324219 -0.16650391 -2.07324219 -0.16650391 0 0 Z " fill="#9F0224" transform="translate(178.0732421875,330.16650390625)"/>
<path d="M0 0 C2.31853933 0.92442407 4.62902749 1.86353608 6.9375 2.8125 C7.59685547 3.07353516 8.25621094 3.33457031 8.93554688 3.60351562 C10.66028184 4.319944 12.3349412 5.1540925 14 6 C15.23364032 9.70092097 14.59950089 10.90298972 13.34765625 14.54296875 C12.98349609 15.61611328 12.61933594 16.68925781 12.24414062 17.79492188 C11.65922852 19.47424805 11.65922852 19.47424805 11.0625 21.1875 C10.48338867 22.88422852 10.48338867 22.88422852 9.89257812 24.61523438 C8.93637664 27.41300909 7.9718993 30.20764759 7 33 C3.381234 33.95841614 1.40365202 34.144235 -1.953125 32.453125 C-3.005 31.9271875 -3.005 31.9271875 -4.078125 31.390625 C-4.79484375 31.01421875 -5.5115625 30.6378125 -6.25 30.25 C-6.9821875 29.8890625 -7.714375 29.528125 -8.46875 29.15625 C-13.86774554 26.39676339 -13.86774554 26.39676339 -15 23 C-13.59375 20.21484375 -13.59375 20.21484375 -11.5 16.9375 C-10.95666016 16.08055542 -10.95666016 16.08055542 -10.40234375 15.20629883 C-7.09191966 10.02943572 -3.59793068 4.98088528 0 0 Z " fill="#9F0225" transform="translate(241,338)"/>
<path d="M0 0 C4.57690214 4.15700286 7.70571306 8.8145524 10.9375 14.0625 C11.45634766 14.86494141 11.97519531 15.66738281 12.50976562 16.49414062 C12.98994141 17.27080078 13.47011719 18.04746094 13.96484375 18.84765625 C14.4043335 19.54898682 14.84382324 20.25031738 15.29663086 20.97290039 C16 23 16 23 15.34936523 25.13720703 C13.83371295 27.22955857 12.79236044 27.92598746 10.4453125 28.95703125 C9.74792969 29.26447266 9.05054688 29.57191406 8.33203125 29.88867188 C7.60371094 30.19353516 6.87539063 30.49839844 6.125 30.8125 C5.40441406 31.13669922 4.68382812 31.46089844 3.94140625 31.79492188 C-1.26125938 34.03216391 -1.26125938 34.03216391 -4.1027832 33.90844727 C-6 33 -6 33 -7.2043457 30.73095703 C-7.6852063 29.25925049 -7.6852063 29.25925049 -8.17578125 27.7578125 C-8.52833984 26.69175781 -8.88089844 25.62570312 -9.24414062 24.52734375 C-9.59669922 23.40457031 -9.94925781 22.28179687 -10.3125 21.125 C-10.68439453 20.00996094 -11.05628906 18.89492188 -11.43945312 17.74609375 C-14.13804394 9.41413181 -14.13804394 9.41413181 -13 6 C-10.05859375 4.39453125 -10.05859375 4.39453125 -6.4375 2.8125 C-5.23996094 2.28269531 -4.04242188 1.75289063 -2.80859375 1.20703125 C-1.41833984 0.60955078 -1.41833984 0.60955078 0 0 Z " fill="#9F0225" transform="translate(341,338)"/>
<path d="M0 0 C1.32 0.33 2.64 0.66 4 1 C4 1.66 4 2.32 4 3 C4.59256592 3.27021973 5.18513184 3.54043945 5.7956543 3.81884766 C9.36017704 5.7288223 11.95733696 8.54785928 14.8125 11.375 C15.72805664 12.24125 15.72805664 12.24125 16.66210938 13.125 C17.23380859 13.68960937 17.80550781 14.25421875 18.39453125 14.8359375 C18.91893799 15.34688965 19.44334473 15.8578418 19.98364258 16.38427734 C21 18 21 18 20.81054688 20.05688477 C19.53836549 23.10667141 17.26013855 24.54868624 14.6875 26.5625 C13.72199219 27.32691406 12.75648438 28.09132813 11.76171875 28.87890625 C10.85035156 29.57886719 9.93898438 30.27882813 9 31 C8.28457031 31.60714844 7.56914062 32.21429688 6.83203125 32.83984375 C6.22746094 33.22269531 5.62289063 33.60554688 5 34 C1.20984271 32.73661424 0.72909972 31.43662799 -1.35546875 28.08984375 C-1.97744141 27.10048828 -2.59941406 26.11113281 -3.24023438 25.09179688 C-3.88283203 24.05087891 -4.52542969 23.00996094 -5.1875 21.9375 C-6.16879883 20.37032227 -6.16879883 20.37032227 -7.16992188 18.77148438 C-8.78756833 16.18561157 -10.39716994 13.59507324 -12 11 C-8.80403303 7.77191276 -5.67660713 4.68292953 -2 2 C-1.34 2 -0.68 2 0 2 C0 1.34 0 0.68 0 0 Z " fill="#9C0224" transform="translate(361,324)"/>
<path d="M0 0 C3.19556628 1.16510057 5.29410981 2.81955224 7.89453125 5.00390625 C8.77753906 5.73738281 9.66054687 6.47085937 10.5703125 7.2265625 C11.56611328 8.07541016 11.56611328 8.07541016 12.58203125 8.94140625 C10.04919162 14.43366903 6.78024467 19.31559985 3.39453125 24.31640625 C2.83572266 25.14785156 2.27691406 25.97929687 1.70117188 26.8359375 C0.33126287 28.87323807 -1.04184506 30.90830064 -2.41796875 32.94140625 C-6.67518657 31.53759249 -9.29490719 29.50074252 -12.54296875 26.44140625 C-15.12207354 24.02692517 -17.47398486 21.90406218 -20.41796875 19.94140625 C-19.83803151 16.72103349 -18.94288843 15.09590882 -16.6171875 12.8125 C-16.05193359 12.25240234 -15.48667969 11.69230469 -14.90429688 11.11523438 C-14.31068359 10.54224609 -13.71707031 9.96925781 -13.10546875 9.37890625 C-12.52345703 8.80205078 -11.94144531 8.22519531 -11.34179688 7.63085938 C-9.72312568 6.04151857 -8.07987412 4.48533189 -6.41796875 2.94140625 C-5.72316406 2.29300781 -5.02835938 1.64460938 -4.3125 0.9765625 C-2.41796875 -0.05859375 -2.41796875 -0.05859375 0 0 Z " fill="#9F0225" transform="translate(221.41796875,325.05859375)"/>
<path d="M0 0 C4.38456609 1.54456306 8.13131307 3.84547393 12 6.375 C12.60328125 6.76171875 13.2065625 7.1484375 13.828125 7.546875 C17.38505384 9.85114629 20.73313891 12.28999023 24 15 C22.59601721 19.10110762 20.62912962 21.98089159 17.875 25.3125 C17.15054687 26.19550781 16.42609375 27.07851563 15.6796875 27.98828125 C15.12539063 28.65214844 14.57109375 29.31601562 14 30 C10.53874798 28.05780923 7.79280517 26.03333859 5.01171875 23.20703125 C4.30595703 22.49482422 3.60019531 21.78261719 2.87304688 21.04882812 C2.15181641 20.31083984 1.43058594 19.57285156 0.6875 18.8125 C-0.05306641 18.06291016 -0.79363281 17.31332031 -1.55664062 16.54101562 C-3.37571712 14.69846718 -5.18994389 12.85140338 -7 11 C-5.23931224 6.42810261 -3.22724875 3.65188674 0 0 Z " fill="#070606" transform="translate(375,308)"/>
<path d="M0 0 C4.59216906 4.06734974 7.2167907 8.56385928 10 14 C9.57589844 14.59425781 9.15179688 15.18851562 8.71484375 15.80078125 C4.766394 21.38067837 1.10774395 27.03152474 -2.32421875 32.9453125 C-2.87722656 33.62335938 -3.43023437 34.30140625 -4 35 C-5.32 35 -6.64 35 -8 35 C-9.25707156 32.78287379 -10.47940604 30.55610306 -11.6875 28.3125 C-12.22600586 27.37374023 -12.22600586 27.37374023 -12.77539062 26.41601562 C-13.76171875 24.55078125 -13.76171875 24.55078125 -15 21 C-13.890625 18.2890625 -13.890625 18.2890625 -12 16 C-11.27490234 14.99646484 -11.27490234 14.99646484 -10.53515625 13.97265625 C-10.04917969 13.34230469 -9.56320312 12.71195312 -9.0625 12.0625 C-7.20836324 9.62865795 -5.42254369 7.18706131 -3.75 4.625 C-2 2 -2 2 0 0 Z " fill="#9F0225" transform="translate(430,355)"/>
<path d="M0 0 C3.90097717 3.78645307 7.4873116 7.73668083 10.9375 11.9375 C11.71577148 12.82985352 11.71577148 12.82985352 12.50976562 13.74023438 C13.90684571 15.45611126 15.06241121 16.99514369 16 19 C15.31947675 23.32812784 13.17157576 26.68050856 10.875 30.375 C10.33617187 31.24898438 9.79734375 32.12296875 9.2421875 33.0234375 C8.83226562 33.67570312 8.42234375 34.32796875 8 35 C2.5269508 32.80323842 0.53718615 28.04913782 -2.375 23.1875 C-2.94605469 22.28451172 -3.51710937 21.38152344 -4.10546875 20.45117188 C-4.63527344 19.57396484 -5.16507813 18.69675781 -5.7109375 17.79296875 C-6.44256104 16.59450317 -6.44256104 16.59450317 -7.18896484 15.37182617 C-8 13 -8 13 -7.23730469 10.34033203 C-5.96023248 7.92478069 -4.55427988 5.84135897 -2.875 3.6875 C-2.33617187 2.99011719 -1.79734375 2.29273438 -1.2421875 1.57421875 C-0.62730469 0.79498047 -0.62730469 0.79498047 0 0 Z " fill="#9F0225" transform="translate(152,356)"/>
<path d="M0 0 C2.68864623 1.13709262 3.57180487 2.89046967 5.09033203 5.34082031 C5.61111328 6.16710937 6.13189453 6.99339844 6.66845703 7.84472656 C7.05517578 8.4828125 7.44189453 9.12089844 7.84033203 9.77832031 C7.22287109 10.32359375 6.60541016 10.86886719 5.96923828 11.43066406 C0.05814487 16.69396642 -5.62385733 22.12216597 -11.15966797 27.77832031 C-15.04963987 26.28085325 -16.62914849 24.07409953 -18.90966797 20.65332031 C-19.52326172 19.74324219 -20.13685547 18.83316406 -20.76904297 17.89550781 C-21.22794922 17.19683594 -21.68685547 16.49816406 -22.15966797 15.77832031 C-20.00276169 10.57830977 -15.83874031 8.46979761 -11.28466797 5.46582031 C-10.46869141 4.90314453 -9.65271484 4.34046875 -8.81201172 3.76074219 C-8.02181641 3.23416016 -7.23162109 2.70757812 -6.41748047 2.16503906 C-5.33684326 1.44127075 -5.33684326 1.44127075 -4.234375 0.70288086 C-2.15966797 -0.22167969 -2.15966797 -0.22167969 0 0 Z " fill="#9F0225" transform="translate(207.15966796875,309.2216796875)"/>
<path d="M0 0 C2.37011719 0.14160156 2.37011719 0.14160156 5 1 C6.65332031 3.05371094 6.65332031 3.05371094 8.078125 5.734375 C8.59890625 6.70117188 9.1196875 7.66796875 9.65625 8.6640625 C10.1821875 9.68242187 10.708125 10.70078125 11.25 11.75 C11.79140625 12.75289063 12.3328125 13.75578125 12.890625 14.7890625 C15.23355157 19.20547909 17.2185429 23.02240935 18 28 C12.24632716 30.39736368 6.18367567 30.87498012 0 31 C-1.85714057 29.14285943 -1.13048681 26.07492951 -1.1328125 23.59375 C-1.13410156 22.29308594 -1.13539063 20.99242187 -1.13671875 19.65234375 C-1.13462402 18.97155762 -1.1325293 18.29077148 -1.13037109 17.58935547 C-1.1250224 15.50871485 -1.1303168 13.42829011 -1.13671875 11.34765625 C-1.13542969 10.04699219 -1.13414062 8.74632812 -1.1328125 7.40625 C-1.13168457 6.20291016 -1.13055664 4.99957031 -1.12939453 3.75976562 C-1 1 -1 1 0 0 Z " fill="#A00225" transform="translate(297,311)"/>
<path d="M0 0 C2.1875 0.3125 2.1875 0.3125 4 1 C4.02465746 5.1117256 4.04283959 9.22342278 4.05493164 13.33520508 C4.0599708 14.73495228 4.06680216 16.1346942 4.07543945 17.53442383 C4.0875232 19.54245777 4.09269807 21.55052957 4.09765625 23.55859375 C4.10551147 25.37315063 4.10551147 25.37315063 4.11352539 27.22436523 C4 30 4 30 3 31 C-3.18367567 30.87498012 -9.24632716 30.39736368 -15 28 C-13.31020982 21.69144999 -10.6819584 16.2903291 -7.5 10.625 C-7.10820557 9.92310547 -6.71641113 9.22121094 -6.31274414 8.49804688 C-2.5554268 1.93047508 -2.5554268 1.93047508 0 0 Z " fill="#A00225" transform="translate(283,311)"/>
<path d="M0 0 C6.01681167 0.43811735 10.31584287 3.16871048 15.375 6.1875 C16.18710937 6.65736328 16.99921875 7.12722656 17.8359375 7.61132812 C23.16787326 10.74298591 28.13704715 14.18247268 33 18 C31.68374806 21.94875582 29.94634602 22.54992713 26.4375 24.6875 C25.42558594 25.31011719 24.41367187 25.93273437 23.37109375 26.57421875 C22.58863281 27.04472656 21.80617188 27.51523437 21 28 C16.16294877 22.64743537 11.35145198 17.28002385 6.64453125 11.8125 C5.01250897 10.0137866 3.28683781 8.39306925 1.5 6.75 C0.675 5.8425 -0.15 4.935 -1 4 C-0.65625 1.828125 -0.65625 1.828125 0 0 Z " fill="#940122" transform="translate(323,300)"/>
<path d="M0 0 C1.98 0.66 3.96 1.32 6 2 C3.8283805 7.67775377 0.94868965 12.91003437 -1.9375 18.25 C-2.47568359 19.26835937 -3.01386719 20.28671875 -3.56835938 21.3359375 C-4.09107422 22.30273438 -4.61378906 23.26953125 -5.15234375 24.265625 C-5.62663818 25.15024414 -6.10093262 26.03486328 -6.58959961 26.94628906 C-8 29 -8 29 -11 30 C-13.26171875 29.22265625 -13.26171875 29.22265625 -15.6875 28.0625 C-16.49574219 27.68222656 -17.30398437 27.30195313 -18.13671875 26.91015625 C-18.75160156 26.60980469 -19.36648437 26.30945313 -20 26 C-20 20.85135161 -17.76341023 18.8860656 -14.5 15.25 C-13.95698242 14.63108887 -13.41396484 14.01217773 -12.85449219 13.37451172 C-8.74995839 8.73476225 -4.49896449 4.26078402 0 0 Z " fill="#A00225" transform="translate(268,307)"/>
<path d="M0 0 C8.46023662 5.38378694 14.96994653 14.5444701 21.10546875 22.33984375 C20.42578125 24.23046875 20.42578125 24.23046875 19.10546875 26.33984375 C16.72265625 27.38671875 16.72265625 27.38671875 13.98046875 28.08984375 C13.07039063 28.3321875 12.1603125 28.57453125 11.22265625 28.82421875 C10.52398437 28.994375 9.8253125 29.16453125 9.10546875 29.33984375 C5.60139069 23.8732229 2.3502508 18.31779648 -0.70703125 12.58984375 C-1.11373047 11.84863281 -1.52042969 11.10742188 -1.93945312 10.34375 C-2.51469727 9.26673828 -2.51469727 9.26673828 -3.1015625 8.16796875 C-3.44678955 7.52762695 -3.7920166 6.88728516 -4.14770508 6.22753906 C-4.89453125 4.33984375 -4.89453125 4.33984375 -4.89453125 0.33984375 C-1.89453125 -0.66015625 -1.89453125 -0.66015625 0 0 Z " fill="#9F0225" transform="translate(314.89453125,307.66015625)"/>
<path d="M0 0 C-1.52455283 3.65726061 -3.70697981 5.84997926 -6.5625 8.5625 C-11.21298283 13.08492605 -15.15812945 17.793411 -19.08984375 22.9453125 C-19.72019531 23.62335938 -20.35054687 24.30140625 -21 25 C-24.80345877 25 -25.77701015 23.86213669 -28.6875 21.5 C-29.49574219 20.8503125 -30.30398437 20.200625 -31.13671875 19.53125 C-31.75160156 19.0259375 -32.36648437 18.520625 -33 18 C-31.82567807 14.47703422 -31.08481748 14.13012298 -28.02734375 12.22265625 C-27.20943359 11.70896484 -26.39152344 11.19527344 -25.54882812 10.66601562 C-24.68708984 10.13685547 -23.82535156 9.60769531 -22.9375 9.0625 C-22.10283203 8.53720703 -21.26816406 8.01191406 -20.40820312 7.47070312 C-5.25045772 -1.96892164 -5.25045772 -1.96892164 0 0 Z " fill="#9F0225" transform="translate(261,302)"/>
<path d="M0 0 C8.30897455 1.94722693 16.27490758 4.29525827 24.1875 7.5 C24.90542725 7.78431885 25.62335449 8.0686377 26.36303711 8.36157227 C30.34592748 10.02296327 33.1461573 11.63733264 36 15 C33.69 17.64 31.38 20.28 29 23 C25.94180279 21.4709014 23.12246986 19.89664978 20.2265625 18.1015625 C19.3190625 17.53953125 18.4115625 16.9775 17.4765625 16.3984375 C16.53554688 15.81320312 15.59453125 15.22796875 14.625 14.625 C13.69171875 14.0475 12.7584375 13.47 11.796875 12.875 C7.14574148 9.98945257 2.52858302 7.07458981 -2 4 C-1.34 2.68 -0.68 1.36 0 0 Z " fill="#0C0B0B" transform="translate(333,291)"/>
<path d="M0 0 C-1.04785381 3.26641325 -2.08902582 4.05357306 -5.08984375 5.859375 C-6.36796592 6.49851983 -7.65081896 7.12826509 -8.9375 7.75 C-15.83964391 11.23732884 -21.89490022 15.22761431 -28 20 C-31.74020498 18.31847927 -33.56134348 16.30960527 -36 13 C-32.48389451 8.72238503 -28.42136782 7.28911208 -23.375 5.4375 C-22.57046387 5.13521484 -21.76592773 4.83292969 -20.93701172 4.52148438 C-4.69819503 -1.51690602 -4.69819503 -1.51690602 0 0 Z " fill="#A00427" transform="translate(251,293)"/>
<path d="M0 0 C5.76315769 1.54803265 10.37456974 4.48278386 15.375 7.625 C16.20644531 8.140625 17.03789062 8.65625 17.89453125 9.1875 C19.93317962 10.45286795 21.96812882 11.72378866 24 13 C20 20.71428571 20 20.71428571 16 22 C2.38297872 4.76595745 2.38297872 4.76595745 0 0 Z " fill="#950222" transform="translate(394,345)"/>
<path d="M0 0 C1.32862061 0.1222998 1.32862061 0.1222998 2.68408203 0.24707031 C3.65216797 0.33472656 4.62025391 0.42238281 5.61767578 0.51269531 C7.13941406 0.66738281 7.13941406 0.66738281 8.69189453 0.82519531 C9.69865234 0.91285156 10.70541016 1.00050781 11.74267578 1.09082031 C19.95424602 1.87599038 19.95424602 1.87599038 23.81689453 4.07519531 C22.3087966 8.29786953 19.76206055 10.1026123 15.81689453 12.07519531 C10.88412894 10.92281133 6.75906773 8.50084252 2.44189453 5.95019531 C1.80123047 5.57765625 1.16056641 5.20511719 0.50048828 4.82128906 C-1.06359024 3.9108553 -2.62376081 2.9937134 -4.18310547 2.07519531 C-2.18310547 0.07519531 -2.18310547 0.07519531 0 0 Z " fill="#090809" transform="translate(300.18310546875,285.9248046875)"/>
<path d="M0 0 C6.01681167 0.43811735 10.31584287 3.16871048 15.375 6.1875 C16.18710937 6.65736328 16.99921875 7.12722656 17.8359375 7.61132812 C23.16787326 10.74298591 28.13704715 14.18247268 33 18 C32.505 19.485 32.505 19.485 32 21 C28.35812862 19.62690941 25.03802622 17.98986669 21.65625 16.06640625 C20.65722656 15.49986328 19.65820312 14.93332031 18.62890625 14.34960938 C17.59636719 13.75986328 16.56382812 13.17011719 15.5 12.5625 C13.95119141 11.68368164 13.95119141 11.68368164 12.37109375 10.78710938 C7.88489254 8.23721049 3.41717262 5.6681276 -1 3 C-0.67 2.01 -0.34 1.02 0 0 Z " fill="#0B0A0A" transform="translate(323,300)"/>
<path d="M0 0 C4.59216906 4.06734974 7.2167907 8.56385928 10 14 C5.82412255 15.39195915 3.86525224 13.82323219 0 12 C0 11.34 0 10.68 0 10 C-1.65 9.67 -3.3 9.34 -5 9 C-4.5206753 4.68607774 -3.2542015 2.83430453 0 0 Z " fill="#12090B" transform="translate(430,355)"/>
<path d="M0 0 C4.39383706 1.59623144 8.28995807 3.78024333 12.3125 6.125 C12.95767578 6.49753906 13.60285156 6.87007812 14.26757812 7.25390625 C15.84675945 8.16632213 17.42361864 9.08275509 19 10 C15.71349309 12.19100461 15.33279662 12.27393095 11.6875 11.5625 C6.50563218 10.27759966 3.77834437 7.45527366 1 3 C0.67 2.01 0.34 1.02 0 0 Z " fill="#8C0120" transform="translate(219,243)"/>
<path d="M0 0 C0.66 0.33 1.32 0.66 2 1 C-1.51740479 4.56673193 -5.04124462 8.12692951 -8.57128906 11.68115234 C-9.77198895 12.89192849 -10.9708902 14.10449101 -12.16796875 15.31884766 C-13.88595748 17.06101338 -15.61024875 18.79671544 -17.3359375 20.53125 C-17.87245941 21.07809448 -18.40898132 21.62493896 -18.96176147 22.18835449 C-20.27042287 23.49741098 -21.63096626 24.75421906 -23 26 C-23.66 26 -24.32 26 -25 26 C-23.50086218 22.49555423 -21.48103478 20.23601329 -18.7890625 17.55859375 C-17.95632812 16.72779297 -17.12359375 15.89699219 -16.265625 15.04101562 C-15.39421875 14.18185547 -14.5228125 13.32269531 -13.625 12.4375 C-12.32949219 11.14295898 -12.32949219 11.14295898 -11.0078125 9.82226562 C-3.99512651 2.85827885 -3.99512651 2.85827885 0 0 Z " fill="#DDD9DA" transform="translate(176,151)"/>
</svg>
